<?xml version="1.0" encoding="UTF-8"?>
<svg width="32px" height="32px" viewBox="0 0 573 573" version="1.1" xmlns="http://www.w3.org/2000/svg" xmlns:xlink="http://www.w3.org/1999/xlink">
    <!-- Generator: Sketch 59.1 (86144) - https://sketch.com -->
    <title>CR3TV Logo</title>
    <desc>Designed By Tarek Besbes</desc>
    <g id="Titles" stroke="none" stroke-width="1" fill="none" fill-rule="evenodd">
        <g id="Group-Copy-2" transform="translate(1.000000, 1.000000)" fill="#F5DEB3" stroke="#2A2F3F" stroke-width="2">
            <path d="M288.813647,371.808046 C290.31277,371.810209 291.782576,372.22359 293.063026,373.003217 L293.063026,373.003217 L357.919174,411.924731 C374.548953,421.907921 392.020321,430.416962 410.13342,437.354517 C428.182439,444.270335 444.762456,454.533689 459.001279,467.604674 L459.001279,467.604674 L470.952658,478.533506 C479.569114,486.576478 484.523502,497.79196 484.66962,509.578044 C484.809378,521.364127 480.128444,532.696463 471.709578,540.946033 L471.709578,540.946033 L457.421041,554.690069 C445.500338,566.278506 429.143799,572.13429 412.576813,570.744695 C395.961021,569.222788 380.796909,560.644652 370.932898,547.187286 L370.932898,547.187286 L335.078762,498.7711 C319.919023,473.025508 306.837249,446.111609 295.957916,418.285497 C291.708536,407.197314 288.229357,398.499398 285.533657,392.112074 C282.877796,398.512678 279.358778,407.170756 275.109399,418.285497 C264.203018,446.132843 251.090066,473.064698 235.895598,498.824217 L235.895598,498.824217 L200.041462,547.240403 C190.178616,560.699081 175.013863,569.277581 158.397547,570.797812 C141.836594,572.190518 125.48457,566.339459 113.566598,554.756465 L113.566598,554.756465 L99.3046194,540.99915 C90.8806399,532.754971 86.1925691,521.425729 86.3251296,509.639674 C86.4633986,497.85362 91.4105299,486.63508 100.021702,478.586623 L100.021702,478.586623 L111.973081,467.657791 C126.209687,454.577314 142.789848,444.304861 160.84094,437.381075 C178.962698,430.449199 196.442994,421.944582 213.081744,411.964569 L213.081744,411.964569 L278.030848,373.043055 C280.283328,371.665533 283.06161,371.457904 285.49382,372.485326 C286.542541,372.035149 287.672391,371.80466 288.813647,371.808046 L288.813647,371.808046 Z M61.3921904,86.3039674 C73.2011102,86.3964864 84.4466745,91.3656621 92.4657749,100.034724 L92.4657749,100.034724 L103.394647,111.986059 C116.465935,126.224637 126.729357,142.804644 133.644914,160.85374 C140.576691,178.975486 149.081344,196.455729 159.061513,213.094353 L159.061513,213.094353 L197.983169,278.04322 C199.365728,280.315938 199.558832,283.118414 198.501062,285.559282 C198.944187,286.59156 199.17453,287.702618 199.178307,288.82598 C199.176181,290.325097 198.762798,291.794899 197.983169,293.075344 L197.983169,293.075344 L159.034954,357.917976 C149.056236,374.54813 140.551611,392.019427 133.618355,410.132031 C126.702799,428.181127 116.439376,444.761134 103.368088,458.999712 L103.368088,458.999712 L92.4392163,470.951047 C84.3962141,479.567473 73.1806916,484.521842 61.394565,484.66796 C49.6084384,484.807718 38.2760619,480.1268 30.0264611,471.707965 L30.0264611,471.707965 L16.2558171,457.41948 C4.67098464,445.501963 -1.18453041,429.151138 0.201131732,412.588694 C1.72304428,395.972963 10.3012119,380.808907 23.758627,370.944931 L23.758627,370.944931 L72.1749899,335.090926 C97.9333214,319.929041 124.860733,306.847269 152.700723,295.970223 C163.788947,291.720859 172.486895,288.241693 178.874243,285.546003 C172.473615,282.89015 163.815506,279.371146 152.700723,275.121782 C124.853692,264.219718 97.9217501,251.111259 72.1617105,235.921403 L72.1617105,235.921403 L23.7453477,200.067398 C10.2949206,190.204974 1.72182737,175.046176 0.201131732,158.436914 C-1.18808294,141.874005 4.66794453,125.52175 16.2558171,113.606128 L16.2558171,113.606128 L29.9866232,99.3176434 C38.214072,90.8366563 49.5774709,86.12795 61.3921904,86.3039674 Z M509.595449,86.3039674 C521.410168,86.12795 532.773567,90.8366563 541.001016,99.3176434 L554.745101,113.606128 C566.328138,125.524057 572.179218,141.876022 570.786507,158.436914 C569.262593,175.048393 560.684447,190.207575 547.229012,200.067398 L498.812649,235.921403 C473.057305,251.115181 446.129815,264.228074 418.286916,275.135062 C407.172134,279.384425 398.500744,282.863592 392.113396,285.559282 C398.514024,288.215134 407.198692,291.734138 418.286916,295.983502 C446.131038,306.855626 473.062902,319.932963 498.825929,335.090926 L547.242291,370.944931 C560.699706,380.808907 569.277874,395.972963 570.799787,412.588694 C572.185449,429.151138 566.329934,445.501963 554.745101,457.41948 L541.001016,471.707965 C532.751415,480.1268 521.419039,484.807718 509.632912,484.66796 C497.846785,484.521842 486.631263,479.567473 478.588261,470.951047 L467.659389,458.999712 C454.588101,444.761134 444.324678,428.181127 437.409122,410.132031 C430.475866,392.019427 421.971241,374.54813 411.992523,357.917976 L373.00447,293.062064 C372.224841,291.781619 371.811458,290.311818 371.809332,288.812701 C371.81311,287.689339 372.043452,286.578281 372.486577,285.546003 C371.428807,283.105135 371.621911,280.302659 373.00447,278.029941 L411.926126,213.081074 C421.906295,196.44245 430.410948,178.962207 437.342725,160.840461 C444.258282,142.791365 454.521704,126.211357 467.592992,111.972779 L478.521864,100.021444 C486.543276,91.35729 497.788534,86.393055 509.595449,86.3039674 L509.595449,86.3039674 Z M281.510027,212.456949 C321.846808,212.456949 354.54623,245.156251 354.54623,285.492885 C354.54623,325.829519 321.846808,358.528822 281.510027,358.528822 C241.173246,358.528822 208.473824,325.829519 208.473824,285.492885 C208.473824,245.156251 241.173246,212.456949 281.510027,212.456949 Z M158.424106,0.20123778 C175.039897,1.72314478 190.204009,10.3012811 200.068021,23.7586472 L235.922157,72.1748335 C251.093209,97.9322179 264.18392,124.859554 275.069561,152.700273 C279.318941,163.815015 282.79812,172.486373 285.49382,178.873697 C288.149681,172.473093 291.668699,163.788457 295.918078,152.700273 C306.791532,124.865347 319.868895,97.9425083 335.025644,72.1881128 L370.87978,23.7719264 C380.752484,10.3022984 395.932243,1.7186813 412.563533,0.20123778 C429.130055,-1.18480637 445.485164,4.67046621 457.407762,16.2558646 L471.696299,29.9998999 C480.118674,38.2476006 484.80205,49.5806793 484.662276,61.3679614 C484.516144,73.1552435 479.559298,84.3714093 470.939378,92.4124276 L458.988,103.34126 C444.744648,116.412895 428.160163,126.676225 410.106861,133.591417 C391.989449,140.528824 374.513658,149.037855 357.879336,159.021202 L292.903674,197.982554 C291.623225,198.76218 290.153418,199.175562 288.654295,199.177688 C287.598158,199.147981 286.557245,198.91817 285.586775,198.500445 C283.145898,199.558211 280.343412,199.365108 278.070685,197.982554 L213.108303,159.06104 C196.473481,149.08232 178.997708,140.577742 160.880778,133.644534 C142.825546,126.721088 126.240968,116.448689 111.999639,103.367818 L100.048261,92.4389861 C91.4301024,84.3961385 86.4756757,73.1789529 86.3321625,61.3916808 C86.1947865,49.6044087 90.8805405,38.2723617 99.3046194,30.0264584 L113.579877,16.2558646 C125.50058,4.66742728 141.85712,-1.18835724 158.424106,0.20123778 Z" id="CR3TV-Logo"></path>
        </g>
    </g>
</svg>